PathFileType	4	(X/Y/Z)	RBDS05static.trc
DataRate	CameraRate	NumFrames	NumMarkers	Units	OrigDataRate	OrigDataStartFrame	OrigNumFrames
150.000000	150.000000	4	48	mm	150.000000	93	150
Frame#	Time	L.Ankle			L.Ankle.Medial			L.ASIS			L.GTR			L.Heel.Bottom			L.Heel.Lateral			L.Heel.Top			L.HF			L.Iliac.Crest			L.Knee			L.Knee.Medial			L.MT1			L.MT2			L.MT5			L.PSIS			L.Shank.Bottom.Lateral			L.Shank.Bottom.Medial			L.Shank.Top.Lateral			L.Shank.Top.Medial			L.Thigh.Bottom.Lateral			L.Thigh.Bottom.Medial			L.Thigh.Top.Lateral			L.Thigh.Top.Medial			L.TT			R.Ankle			R.Ankle.Medial			R.ASIS			R.GTR			R.Heel.Bottom			R.Heel.Lateral			R.Heel.Top			R.HF			R.Iliac.Crest			R.Knee			R.Knee.Medial			R.MT1			R.MT2			R.MT5			R.PSIS			R.Shank.Bottom.Lateral			R.Shank.Bottom.Medial			R.Shank.Top.Lateral			R.Shank.Top.Medial			R.Thigh.Bottom.Lateral			R.Thigh.Bottom.Medial			R.Thigh.Top.Lateral			R.Thigh.Top.Medial			R.TT			
		X1	Y1	Z1	X2	Y2	Z2	X3	Y3	Z3	X4	Y4	Z4	X5	Y5	Z5	X6	Y6	Z6	X7	Y7	Z7	X8	Y8	Z8	X9	Y9	Z9	X10	Y10	Z10	X11	Y11	Z11	X12	Y12	Z12	X13	Y13	Z13	X14	Y14	Z14	X15	Y15	Z15	X16	Y16	Z16	X17	Y17	Z17	X18	Y18	Z18	X19	Y19	Z19	X20	Y20	Z20	X21	Y21	Z21	X22	Y22	Z22	X23	Y23	Z23	X24	Y24	Z24	X25	Y25	Z25	X26	Y26	Z26	X27	Y27	Z27	X28	Y28	Z28	X29	Y29	Z29	X30	Y30	Z30	X31	Y31	Z31	X32	Y32	Z32	X33	Y33	Z33	X34	Y34	Z34	X35	Y35	Z35	X36	Y36	Z36	X37	Y37	Z37	X38	Y38	Z38	X39	Y39	Z39	X40	Y40	Z40	X41	Y41	Z41	X42	Y42	Z42	X43	Y43	Z43	X44	Y44	Z44	X45	Y45	Z45	X46	Y46	Z46	X47	Y47	Z47	X48	Y48	Z48	

94	0.62	700.1798095703125	104.8390808105469	1043.685180664063	726.2195434570313	110.0144348144531	1122.6650390625	834.18896484375	978.9406127929688	1106.643310546875	754.63525390625	888.6861572265625	1058.9384765625	637.74755859375	38.2356071472168	1080.573974609375	671.2874145507813	57.39339828491211	1039.928833007813	648.7955932617188	87.43721008300781	1082.877319335938	732.4022216796875	449.5879516601563	1050.749877929688	761.9619140625	1037.973266601563	1067.368408203125	741.7265625	500.736083984375	1057.967041015625	743.0238647460938	488.4023132324219	1175.431762695313	840.9865112304688	56.93656539916992	1127.275634765625	851.3623657226563	66.84252166748047	1074.54052734375	820.494873046875	50.90577697753906	1022.155090332031	675.663818359375	1002.854309082031	1170.68310546875	709.7723999023438	185.388916015625	1037.826293945313	669.6470947265625	182.7928619384766	1069.34130859375	706.2925415039063	265.7678527832031	1032.985107421875	665.6365966796875	267.5330810546875	1066.990234375	757.0221557617188	630.9942626953125	1043.150634765625	694.72509765625	624.3344116210938	1080.913940429688	740.9179077148438	740.57568359375	1043.34326171875	687.3336791992188	734.3665161132813	1086.053588867188	789.7491455078125	421.9588317871094	1097.562255859375	692.708984375	107.2174606323242	1408.69189453125	716.5174560546875	118.5075912475586	1334.599609375	826.8263549804688	987.5787963867188	1336.726684570313	743.0438842773438	894.08203125	1383.332641601563	631.0458374023438	39.44060516357422	1371.559936523438	659.0576171875	53.83049392700195	1409.64599609375	640.8580322265625	87.32730865478516	1371.890258789063	721.2765502929688	460.7813415527344	1389.623779296875	767.5487060546875	1030.927368164063	1362.310424804688	734.7106323242188	513.974365234375	1384.140380859375	756.35595703125	491.8148803710938	1273.318969726563	834.677978515625	58.18600082397461	1329.2138671875	841.5316162109375	72.71609497070313	1370.126953125	814.9588623046875	52.68503570556641	1434.47509765625	677.5701293945313	1010.605895996094	1258.833251953125	693.1937255859375	195.5766296386719	1411.94287109375	657.1514282226563	194.1137237548828	1370.549560546875	687.8892822265625	276.6142272949219	1410.91552734375	654.240966796875	273.9234619140625	1369.244995117188	753.6064453125	607.904296875	1399.6171875	690.5784301757813	601.7782592773438	1361.161743164063	739.4869995117188	717.7700805664063	1400.22314453125	681.350341796875	711.7301025390625	1360.671508789063	783.5896606445313	429.5169372558594	1355.736328125	
95	0.6266666666666667	700.1813354492188	104.8443145751953	1043.680908203125	726.2210693359375	110.0113372802734	1122.667236328125	834.2236938476563	978.9420776367188	1106.633544921875	754.6561889648438	888.6942749023438	1058.936645507813	637.7493286132813	38.24427032470703	1080.567504882813	671.287109375	57.39464950561523	1039.934204101563	648.8002319335938	87.44384002685547	1082.890014648438	732.4337768554688	449.5848388671875	1050.758666992188	761.9826049804688	1037.96826171875	1067.357788085938	741.7584838867188	500.7316284179688	1057.9609375	743.0682373046875	488.4082336425781	1175.431396484375	840.9847412109375	56.93102264404297	1127.278442382813	851.3565673828125	66.83930969238281	1074.540893554688	820.5073852539063	50.91359710693359	1022.155456542969	675.6929931640625	1002.847595214844	1170.677734375	709.792724609375	185.3860015869141	1037.829223632813	669.6598510742188	182.8013916015625	1069.33056640625	706.3209228515625	265.7658996582031	1032.978881835938	665.6558227539063	267.5339965820313	1066.980224609375	757.044921875	630.9907836914063	1043.152709960938	694.7572631835938	624.332763671875	1080.897094726563	740.8841552734375	740.657470703125	1043.3212890625	687.3619384765625	734.3655395507813	1086.0458984375	789.779052734375	421.95556640625	1097.559448242188	692.7098999023438	107.2166748046875	1408.696655273438	716.505859375	118.4990692138672	1334.598510742188	826.83642578125	987.5770263671875	1336.719970703125	743.0469360351563	894.074951171875	1383.315551757813	631.0521850585938	39.44524383544922	1371.562377929688	659.0616455078125	53.83033752441406	1409.638427734375	640.8533935546875	87.32769775390625	1371.883666992188	721.2803344726563	460.7766723632813	1389.621948242188	767.5609741210938	1030.917358398438	1362.298583984375	734.7166137695313	513.96240234375	1384.133544921875	756.3839111328125	491.7923583984375	1273.31787109375	834.675537109375	58.18181228637695	1329.221313476563	841.5259399414063	72.72162628173828	1370.123046875	814.9635620117188	52.69402694702148	1434.474609375	677.5870971679688	1010.599426269531	1258.8388671875	693.2051391601563	195.5779876708984	1411.943359375	657.1567993164063	194.1227874755859	1370.551513671875	687.89599609375	276.6163024902344	1410.91015625	654.2521362304688	273.9172973632813	1369.238037109375	753.60888671875	607.9024047851563	1399.618408203125	690.5864868164063	601.7863159179688	1361.161010742188	739.4968872070313	717.7689208984375	1400.21142578125	681.358154296875	711.7240600585938	1360.664184570313	783.5958862304688	429.5162963867188	1355.749267578125	
96	0.6333333333333334	700.1834106445313	104.8355560302734	1043.6962890625	726.2301025390625	110.0144882202148	1122.67236328125	834.24365234375	978.939208984375	1106.630615234375	754.706298828125	888.6837768554688	1058.94677734375	637.7493286132813	38.24189376831055	1080.575317382813	671.2868041992188	57.39786529541016	1039.93212890625	648.7997436523438	87.44260406494141	1082.883056640625	732.4799194335938	449.5442504882813	1050.7412109375	761.992919921875	1037.954833984375	1067.347534179688	741.78662109375	500.72314453125	1057.968994140625	743.0925903320313	488.3925476074219	1175.432983398438	840.9846801757813	56.93769836425781	1127.286743164063	851.3749389648438	66.84204864501953	1074.541870117188	820.501220703125	50.909423828125	1022.160583496094	675.7230224609375	1002.840698242188	1170.669921875	709.8021240234375	185.3917388916016	1037.82568359375	669.67138671875	182.7930603027344	1069.327026367188	706.3373413085938	265.7653198242188	1032.980590820313	665.6668090820313	267.5426940917969	1066.973754882813	757.0794067382813	630.9970092773438	1043.148315429688	694.7869873046875	624.3359375	1080.904541015625	741.0043334960938	740.5848999023438	1043.324829101563	687.3905029296875	734.366455078125	1086.034057617188	789.8101806640625	421.9533386230469	1097.552856445313	692.7105712890625	107.2179336547852	1408.69287109375	716.50927734375	118.5065231323242	1334.587036132813	826.8486328125	987.5746459960938	1336.722045898438	743.0589599609375	894.08447265625	1383.314819335938	631.0455322265625	39.44980239868164	1371.564575195313	659.0606689453125	53.83237838745117	1409.644287109375	640.8563232421875	87.32791137695313	1371.890991210938	721.2864379882813	460.7752990722656	1389.621215820313	767.5775146484375	1030.928466796875	1362.288452148438	734.7217407226563	513.9686279296875	1384.134155273438	756.3651123046875	491.8159484863281	1273.316650390625	834.6807250976563	58.18375015258789	1329.21142578125	841.5272216796875	72.72356414794922	1370.12255859375	814.9699096679688	52.69159698486328	1434.466796875	677.6013793945313	1010.599426269531	1258.810668945313	693.2079467773438	195.57763671875	1411.938354492188	657.1597290039063	194.1113586425781	1370.54931640625	687.90380859375	276.6090087890625	1410.905395507813	654.249267578125	273.9275817871094	1369.239501953125	753.6190795898438	607.9010620117188	1399.609130859375	690.5863037109375	601.7876586914063	1361.147827148438	739.5001831054688	717.7694702148438	1400.2138671875	681.3623657226563	711.7291259765625	1360.663696289063	783.5952758789063	429.5112609863281	1355.741333007813	
97	0.64	700.1911010742188	104.8457641601563	1043.689208984375	726.2255249023438	110.0076141357422	1122.676513671875	834.2811279296875	978.9378051757813	1106.628662109375	754.7330322265625	888.6842041015625	1058.938598632813	637.7452392578125	38.24921417236328	1080.57763671875	671.2880249023438	57.40505218505859	1039.932250976563	648.805908203125	87.44476318359375	1082.884643554688	732.4981689453125	449.5829467773438	1050.756958007813	762.0166015625	1037.941284179688	1067.334716796875	741.841796875	500.7391967773438	1057.9560546875	743.1019287109375	488.4079284667969	1175.43505859375	840.9895629882813	56.92998504638672	1127.280395507813	851.3758544921875	66.83915710449219	1074.54345703125	820.5048828125	50.90718078613281	1022.157836914063	675.7400512695313	1002.840087890625	1170.666015625	709.8163452148438	185.3876647949219	1037.822021484375	669.6854858398438	182.7985992431641	1069.310913085938	706.3585205078125	265.7638244628906	1032.961059570313	665.6909790039063	267.552001953125	1066.950561523438	757.1135864257813	630.994873046875	1043.145141601563	694.831787109375	624.3397216796875	1080.885009765625	741.0388793945313	740.5779418945313	1043.321899414063	687.4130249023438	734.3622436523438	1086.0322265625	789.8410034179688	421.9391784667969	1097.564086914063	692.7161254882813	107.2126693725586	1408.690795898438	716.5220947265625	118.5130310058594	1334.589233398438	826.8604125976563	987.5716552734375	1336.715698242188	743.0723266601563	894.0809936523438	1383.312866210938	631.0481567382813	39.4521369934082	1371.568237304688	659.064208984375	53.82939910888672	1409.634521484375	640.857177734375	87.33423614501953	1371.880493164063	721.2789916992188	460.7774047851563	1389.6171875	767.5780639648438	1030.9345703125	1362.29052734375	734.71923828125	513.9744873046875	1384.1279296875	756.3966674804688	491.8010864257813	1273.307250976563	834.6880493164063	58.18308639526367	1329.21630859375	841.531005859375	72.71501159667969	1370.123657226563	814.9686889648438	52.68953704833984	1434.485229492188	677.6279907226563	1010.600158691406	1258.8076171875	693.2136840820313	195.5797882080078	1411.939697265625	657.1647338867188	194.1190490722656	1370.545043945313	687.9061889648438	276.61181640625	1410.908813476563	654.2516479492188	273.9303588867188	1369.231567382813	753.6167602539063	607.9008178710938	1399.599243164063	690.5836791992188	601.7898559570313	1361.129272460938	739.4996337890625	717.7703857421875	1400.214477539063	681.3723754882813	711.7410888671875	1360.650268554688	783.5947875976563	429.5225524902344	1355.742431640625	
